# xmcd
#
# Track frame offsets:
#	150
#	18736
#	34094
#	47497
#	63475
#	78618
#	94547
#	112272
#	130017
#	144425
#	161510
#	176416
#	193989
#	209528
#	230841
#
# Disc length: 3299 seconds
#
# Revision: 0
# Processed by: cddbd v1.5.1PL0 Copyright (c) Steve Scherf et al.
# Submitted via: dBpowerAMP V4.0
#
DISCID=d70ce10f
DTITLE=Frank Michael - Mes grands succès
DYEAR=1900
DGENRE=Ballad
TTITLE0=Entends ma voix
TTITLE1=San Angelo
TTITLE2=Laisse-moi une chance
TTITLE3=Reviens
TTITLE4=Souviens-toi de ma chanson
TTITLE5=Mama
TTITLE6=Don pedro
TTITLE7=T'en va pas
TTITLE8=Je vais t'aimer
TTITLE9=Le blues de toi
TTITLE10=Je ne peux pas t'oublier
TTITLE11=I love you
TTITLE12=Dites-lui que je l'aime
TTITLE13=Parce que t'es belle
TTITLE14=Toutes les femmes sont belles
EXTD=
EXTT0=
EXTT1=
EXTT2=
EXTT3=
EXTT4=
EXTT5=
EXTT6=
EXTT7=
EXTT8=
EXTT9=
EXTT10=
EXTT11=
EXTT12=
EXTT13=
EXTT14=
PLAYORDER=
